<?xml version="1.0" encoding="utf-8"?>
<!-- Generator: Adobe Illustrator 18.1.1, SVG Export Plug-In . SVG Version: 6.00 Build 0)  -->
<!DOCTYPE svg PUBLIC "-//W3C//DTD SVG 1.1//EN" "http://www.w3.org/Graphics/SVG/1.1/DTD/svg11.dtd">
<svg version="1.1" id="Layer_1" xmlns="http://www.w3.org/2000/svg" xmlns:xlink="http://www.w3.org/1999/xlink" x="0px" y="0px"
	 width="2565px" height="1541px" viewBox="771 -258 2565 1541" enable-background="new 771 -258 2565 1541" xml:space="preserve">
<rect x="773.5" y="256.5" fill="none" stroke="#57286B" stroke-width="6" stroke-miterlimit="10" width="768" height="1024"/>
<rect x="773.5" y="0.5" fill="none" stroke="#57286B" stroke-width="6" stroke-miterlimit="10" width="800" height="1280"/>
<rect x="773.5" y="512.5" fill="none" stroke="#57286B" stroke-width="6" stroke-miterlimit="10" width="1024" height="768"/>
<rect x="773.5" y="256.5" fill="none" stroke="#57286B" stroke-width="6" stroke-miterlimit="10" width="600" height="1024"/>
<rect x="773.5" y="680.5" fill="none" stroke="#57286B" stroke-width="6" stroke-miterlimit="10" width="1024" height="600"/>
<rect x="773.5" y="480.5" fill="none" stroke="#57286B" stroke-width="6" stroke-miterlimit="10" width="1024" height="800"/>
<rect x="773.5" y="213.5" fill="none" stroke="#57286B" stroke-width="6" stroke-miterlimit="10" width="640" height="1067"/>
<rect x="773.5" y="640.5" fill="none" stroke="#57286B" stroke-width="6" stroke-miterlimit="10" width="1067" height="640"/>
<rect x="773.5" y="480.5" fill="none" stroke="#57286B" stroke-width="6" stroke-miterlimit="10" width="480" height="800"/>
<rect x="773.5" y="800.5" fill="none" stroke="#57286B" stroke-width="6" stroke-miterlimit="10" width="800" height="480"/>
<rect x="773.5" y="640.5" fill="none" stroke="#57286B" stroke-width="6" stroke-miterlimit="10" width="360" height="640"/>
<rect x="773.5" y="920.5" fill="none" stroke="#57286B" stroke-width="6" stroke-miterlimit="10" width="640" height="360"/>
<rect x="773.5" y="320.5" fill="none" stroke="#57286B" stroke-width="6" stroke-miterlimit="10" width="600" height="960"/>
<rect x="773.5" y="680.5" fill="none" stroke="#57286B" stroke-width="6" stroke-miterlimit="10" width="960" height="600"/>
<rect x="773.5" y="589.5" fill="none" stroke="#57286B" stroke-width="6" stroke-miterlimit="10" width="345" height="691"/>
<rect x="773.5" y="935.5" fill="none" stroke="#57286B" stroke-width="6" stroke-miterlimit="10" width="691" height="345"/>
<rect x="773.5" y="874.5" fill="none" stroke="#57286B" stroke-width="6" stroke-miterlimit="10" width="320" height="406"/>
<rect x="773.5" y="960.5" fill="none" stroke="#57286B" stroke-width="6" stroke-miterlimit="10" width="406" height="320"/>
<rect x="773.5" y="800.5" fill="none" stroke="#57286B" stroke-width="6" stroke-miterlimit="10" width="360" height="480"/>
<rect x="773.5" y="920.5" fill="none" stroke="#57286B" stroke-width="6" stroke-miterlimit="10" width="480" height="360"/>
<rect x="773.5" y="200.5" fill="none" stroke="#57286B" stroke-width="6" stroke-miterlimit="10" width="1920" height="1080"/>
<rect x="773.5" y="0.5" fill="none" stroke="#57286B" stroke-width="6" stroke-miterlimit="10" width="1400" height="1280"/>
<rect x="773.5" y="256.5" fill="none" stroke="#57286B" stroke-width="6" stroke-miterlimit="10" width="1280" height="1024"/>
<rect x="773.5" y="80.5" fill="none" stroke="#57286B" stroke-width="6" stroke-miterlimit="10" width="1600" height="1200"/>
<rect x="773.5" y="80.5" fill="none" stroke="#57286B" stroke-width="6" stroke-miterlimit="10" width="1920" height="1200"/>
<rect x="773.5" y="-159.5" fill="none" stroke="#57286B" stroke-width="6" stroke-miterlimit="10" width="1920" height="1440"/>
<rect x="773.5" y="-255.5" fill="none" stroke="#57286B" stroke-width="6" stroke-miterlimit="10" width="2048" height="1536"/>
<rect x="773.5" y="640.5" fill="none" stroke="#57286B" stroke-width="6" stroke-miterlimit="10" width="320" height="640"/>
<rect x="773.5" y="960.5" fill="none" stroke="#57286B" stroke-width="6" stroke-miterlimit="10" width="640" height="320"/>
<rect x="773.5" y="800.5" fill="none" stroke="#57286B" stroke-width="6" stroke-miterlimit="10" width="320" height="480"/>
<rect x="773.5" y="960.5" fill="none" stroke="#57286B" stroke-width="6" stroke-miterlimit="10" width="480" height="320"/>
<rect x="773.5" y="712.5" fill="none" stroke="#57286B" stroke-width="6" stroke-miterlimit="10" width="320" height="568"/>
<rect x="773.5" y="960.5" fill="none" stroke="#57286B" stroke-width="6" stroke-miterlimit="10" width="668" height="320"/>
<rect x="773.5" y="613.5" fill="none" stroke="#57286B" stroke-width="6" stroke-miterlimit="10" width="375" height="667"/>
<rect x="773.5" y="905.5" fill="none" stroke="#57286B" stroke-width="6" stroke-miterlimit="10" width="667" height="375"/>
<rect x="773.5" y="544.5" fill="none" stroke="#57286B" stroke-width="6" stroke-miterlimit="10" width="414" height="736"/>
<rect x="773.5" y="866.5" fill="none" stroke="#57286B" stroke-width="6" stroke-miterlimit="10" width="736" height="414"/>
<rect x="773.5" y="512.5" fill="none" stroke="#57286B" stroke-width="6" stroke-miterlimit="10" width="1366" height="768"/>
<rect x="773.5" y="230.5" fill="none" stroke="#57286B" stroke-width="6" stroke-miterlimit="10" width="1680" height="1050"/>
<rect x="773.5" y="380.5" fill="none" stroke="#57286B" stroke-width="6" stroke-miterlimit="10" width="1600" height="900"/>
<rect x="773.5" y="480.5" fill="none" stroke="#57286B" stroke-width="6" stroke-miterlimit="10" width="1280" height="800"/>
<rect x="773.5" y="-159.5" fill="none" stroke="#57286B" stroke-width="6" stroke-miterlimit="10" width="2560" height="1440"/>
</svg>
