<svg width="56" height="92" viewBox="0 0 56 92" xmlns="http://www.w3.org/2000/svg" xmlns:sketch="http://www.bohemiancoding.com/sketch/ns">
  <g sketch:type="MSShapeGroup" stroke-linecap="round" stroke-width="2" stroke="#2D1537" fill="none">
    <path d="M55 60.988c0 4.611 0 6.915-.802 9.397-1.008 2.71-3.19 4.844-5.961 5.83-2.538.785-4.894.785-9.608.785h-21.258c-4.714 0-7.071 0-9.608-.785-2.77-.986-4.952-3.12-5.961-5.83-.802-2.482-.802-4.787-.802-9.397v-29.977c0-4.61 0-6.916.802-9.397 1.008-2.71 3.19-4.844 5.961-5.83 2.537-.785 4.894-.785 9.608-.785h21.258c4.714 0 7.07 0 9.608.785 2.77.986 4.952 3.12 5.961 5.83.662 2.048.778 3.977.798 7.18l.004 32.194z"></path>
    <path d="M45.752 19.514l.424.123c1.887.68 3.444 2.214 4.163 4.163l.094.328c.45 1.618.522 2.879.522 7.773v28.197c0 4.893-.072 6.153-.521 7.771l-.125.418c-.689 1.861-2.245 3.396-4.222 4.105l-.335.094c-1.641.443-2.918.514-7.88.514h-19.833c-4.963 0-6.241-.071-7.882-.515l-.422-.123c-1.888-.679-3.444-2.214-4.164-4.163l-.095-.33c-.45-1.618-.521-2.878-.521-7.771v-28.197c0-4.894.072-6.155.522-7.773l.124-.415c.689-1.861 2.246-3.396 4.222-4.105l.333-.093c1.641-.444 2.919-.515 7.882-.515h19.833c4.962 0 6.239.071 7.88.514z"></path>
    <path d="M46 15c-.808-1.841-1.617-4.107-1.741-6.353-.137-2.499-.42-4.792-.892-5.398-1.259-2.038-10.05-2.249-15.401-2.249-5.351 0-14.082.212-15.341 2.249-.472.606-.754 2.899-.892 5.398-.12 2.184-.924 4.41-1.734 6.238"></path>
    <path d="M46 77c-.808 1.841-1.617 4.107-1.741 6.353-.137 2.499-.42 4.792-.892 5.398-1.259 2.038-10.05 2.249-15.401 2.249-5.351 0-14.082-.212-15.341-2.249-.472-.606-.754-2.899-.892-5.398-.12-2.184-.924-4.41-1.734-6.238"></path>
  </g>
</svg>