<?xml version="1.0" encoding="utf-8"?>
<!-- Generator: Adobe Illustrator 18.1.1, SVG Export Plug-In . SVG Version: 6.00 Build 0)  -->
<!DOCTYPE svg PUBLIC "-//W3C//DTD SVG 1.1//EN" "http://www.w3.org/Graphics/SVG/1.1/DTD/svg11.dtd">
<svg version="1.1" id="Layer_1" xmlns="http://www.w3.org/2000/svg" xmlns:xlink="http://www.w3.org/1999/xlink" x="0px" y="0px"
	 width="1024px" height="1024px" viewBox="0 0 1024 1024" enable-background="new 0 0 1024 1024" xml:space="preserve">
<rect x="12" y="8.1" fill="none" stroke="#FFFFFF" stroke-width="4" stroke-miterlimit="10" width="1000" height="150"/>
<rect x="12" y="913.6" fill="none" stroke="#FFFFFF" stroke-width="4" stroke-miterlimit="10" width="1000" height="100"/>
<rect x="12" y="179.4" fill="none" stroke="#FFFFFF" stroke-width="4" stroke-miterlimit="10" width="260" height="400"/>
<g>
	<path fill="#FFFFFF" d="M461,71.4h3.1v9.5h11.8v-9.5h3.1v23h-3.1V83.6h-11.8v10.7H461V71.4z"/>
	<path fill="#FFFFFF" d="M494,78.1c1.1,0.6,2,1.3,2.5,2.2c0.6,0.8,0.9,1.8,1.1,3c0.2,0.8,0.2,2,0.2,3.7h-12.2
		c0.1,1.7,0.4,3.1,1.2,4.1c0.7,1,1.9,1.5,3.5,1.5c1.5,0,2.6-0.5,3.5-1.5c0.5-0.6,0.8-1.2,1-2h2.8c-0.1,0.6-0.3,1.3-0.7,2.1
		c-0.4,0.8-0.9,1.4-1.4,1.9c-0.8,0.8-1.9,1.4-3.1,1.7c-0.7,0.2-1.4,0.2-2.3,0.2c-2.1,0-3.8-0.8-5.3-2.3s-2.2-3.6-2.2-6.4
		c0-2.7,0.7-4.9,2.2-6.5c1.4-1.7,3.3-2.5,5.7-2.5C491.7,77.2,492.9,77.5,494,78.1z M495,84.7c-0.1-1.2-0.4-2.2-0.8-2.9
		c-0.8-1.4-2-2-3.8-2c-1.3,0-2.4,0.5-3.2,1.4c-0.9,0.9-1.3,2.1-1.4,3.6H495z"/>
	<path fill="#FFFFFF" d="M510.4,84.2c0.6-0.1,1.1-0.4,1.3-0.8c0.1-0.3,0.2-0.6,0.2-1.1c0-1-0.3-1.7-1-2.1s-1.7-0.7-2.9-0.7
		c-1.5,0-2.5,0.4-3.1,1.2c-0.3,0.4-0.6,1.1-0.7,2h-2.6c0.1-2.1,0.7-3.5,2-4.3c1.3-0.8,2.8-1.2,4.5-1.2c2,0,3.6,0.4,4.8,1.1
		c1.2,0.8,1.8,1.9,1.8,3.5v9.6c0,0.3,0.1,0.5,0.2,0.7c0.1,0.2,0.4,0.3,0.8,0.3c0.1,0,0.3,0,0.4,0s0.3,0,0.5-0.1v2.1
		c-0.4,0.1-0.8,0.2-1,0.2c-0.2,0-0.5,0-0.9,0c-1,0-1.7-0.3-2.1-1c-0.2-0.4-0.4-0.9-0.5-1.5c-0.6,0.8-1.4,1.4-2.5,2
		c-1.1,0.6-2.3,0.8-3.5,0.8c-1.6,0-2.8-0.5-3.8-1.4s-1.5-2.1-1.5-3.5c0-1.5,0.5-2.8,1.5-3.6s2.2-1.4,3.8-1.6L510.4,84.2z
		 M504.5,91.8c0.6,0.5,1.3,0.7,2.1,0.7c1,0,1.9-0.2,2.9-0.7c1.6-0.8,2.3-2,2.3-3.7v-2.3c-0.3,0.2-0.8,0.4-1.3,0.5
		c-0.5,0.1-1.1,0.3-1.6,0.3l-1.7,0.2c-1,0.1-1.8,0.3-2.3,0.6c-0.9,0.5-1.3,1.3-1.3,2.3C503.6,90.7,503.9,91.4,504.5,91.8z"/>
	<path fill="#FFFFFF" d="M528.4,78.1c0.5,0.3,1.1,0.9,1.7,1.6v-8.5h2.7v23h-2.5V92c-0.7,1-1.4,1.8-2.3,2.2S526,95,524.9,95
		c-1.9,0-3.5-0.8-4.8-2.4c-1.4-1.6-2-3.7-2-6.3c0-2.4,0.6-4.5,1.9-6.3c1.2-1.8,3-2.7,5.3-2.7C526.5,77.3,527.6,77.6,528.4,78.1z
		 M522.1,90.7c0.8,1.2,2,1.8,3.6,1.8c1.3,0,2.4-0.6,3.2-1.7c0.8-1.1,1.3-2.7,1.3-4.8c0-2.1-0.4-3.7-1.3-4.7s-1.9-1.5-3.2-1.5
		c-1.4,0-2.6,0.5-3.4,1.6c-0.9,1.1-1.3,2.7-1.3,4.8C521,88,521.4,89.5,522.1,90.7z"/>
	<path fill="#FFFFFF" d="M547.4,78.1c1.1,0.6,2,1.3,2.5,2.2c0.6,0.8,0.9,1.8,1.1,3c0.2,0.8,0.2,2,0.2,3.7h-12.2
		c0.1,1.7,0.4,3.1,1.2,4.1c0.7,1,1.9,1.5,3.5,1.5c1.5,0,2.6-0.5,3.5-1.5c0.5-0.6,0.8-1.2,1-2h2.8c-0.1,0.6-0.3,1.3-0.7,2.1
		c-0.4,0.8-0.9,1.4-1.4,1.9c-0.8,0.8-1.9,1.4-3.1,1.7c-0.7,0.2-1.4,0.2-2.3,0.2c-2.1,0-3.8-0.8-5.3-2.3s-2.2-3.6-2.2-6.4
		c0-2.7,0.7-4.9,2.2-6.5c1.4-1.7,3.3-2.5,5.7-2.5C545.1,77.2,546.2,77.5,547.4,78.1z M548.4,84.7c-0.1-1.2-0.4-2.2-0.8-2.9
		c-0.8-1.4-2-2-3.8-2c-1.3,0-2.4,0.5-3.2,1.4c-0.9,0.9-1.3,2.1-1.4,3.6H548.4z"/>
	<path fill="#FFFFFF" d="M554.9,77.6h2.7v2.9c0.2-0.6,0.8-1.2,1.6-2.1c0.9-0.8,1.8-1.2,3-1.2c0.1,0,0.1,0,0.3,0c0.1,0,0.3,0,0.6,0.1
		v3c-0.2,0-0.3-0.1-0.5-0.1c-0.1,0-0.3,0-0.5,0c-1.4,0-2.5,0.5-3.3,1.4c-0.8,0.9-1.1,2-1.1,3.1v9.6h-2.8V77.6z"/>
</g>
<g>
	<path fill="#FFFFFF" d="M90.7,383.3c0.1,1.3,0.4,2.4,0.9,3.2c1,1.5,2.7,2.3,5.3,2.3c1.1,0,2.1-0.2,3.1-0.5c1.8-0.6,2.7-1.8,2.7-3.5
		c0-1.2-0.4-2.1-1.1-2.7c-0.8-0.5-2-1-3.6-1.4l-3-0.7c-2-0.5-3.4-1-4.2-1.5c-1.4-1-2.1-2.4-2.1-4.3c0-2.1,0.7-3.8,2.1-5.1
		c1.4-1.3,3.4-2,5.9-2c2.3,0,4.3,0.6,6,1.7c1.6,1.2,2.5,3,2.5,5.6h-2.9c-0.2-1.2-0.5-2.2-1-2.8c-0.9-1.2-2.5-1.8-4.6-1.8
		c-1.8,0-3,0.4-3.8,1.2c-0.8,0.8-1.2,1.7-1.2,2.7c0,1.1,0.5,1.9,1.4,2.5c0.6,0.3,1.9,0.8,4,1.2l3.1,0.7c1.5,0.4,2.7,0.8,3.5,1.5
		c1.4,1.1,2.1,2.6,2.1,4.7c0,2.5-0.9,4.4-2.7,5.5c-1.8,1.1-3.9,1.6-6.3,1.6c-2.8,0-5-0.7-6.5-2.2c-1.6-1.4-2.3-3.4-2.3-5.9H90.7z"/>
	<path fill="#FFFFFF" d="M109.7,367.8h2.9v3.2h-2.9V367.8z M109.7,374.1h2.9v16.7h-2.9V374.1z"/>
	<path fill="#FFFFFF" d="M126,374.5c0.5,0.3,1.1,0.9,1.7,1.6v-8.5h2.7v23h-2.5v-2.3c-0.7,1-1.4,1.8-2.3,2.2s-1.9,0.7-3.1,0.7
		c-1.9,0-3.5-0.8-4.8-2.4c-1.4-1.6-2-3.7-2-6.3c0-2.4,0.6-4.5,1.9-6.3c1.2-1.8,3-2.7,5.3-2.7C124,373.7,125.1,374,126,374.5z
		 M119.7,387.1c0.8,1.2,2,1.8,3.6,1.8c1.3,0,2.4-0.6,3.2-1.7c0.8-1.1,1.3-2.7,1.3-4.8c0-2.1-0.4-3.7-1.3-4.7s-1.9-1.5-3.2-1.5
		c-1.4,0-2.6,0.5-3.4,1.6c-0.9,1.1-1.3,2.7-1.3,4.8C118.6,384.4,118.9,385.9,119.7,387.1z"/>
	<path fill="#FFFFFF" d="M144.9,374.5c1.1,0.6,2,1.3,2.5,2.2c0.6,0.8,0.9,1.8,1.1,3c0.2,0.8,0.2,2,0.2,3.7h-12.2
		c0.1,1.7,0.4,3.1,1.2,4.1c0.7,1,1.9,1.5,3.5,1.5c1.5,0,2.6-0.5,3.5-1.5c0.5-0.6,0.8-1.2,1-2h2.8c-0.1,0.6-0.3,1.3-0.7,2.1
		c-0.4,0.8-0.9,1.4-1.4,1.9c-0.8,0.8-1.9,1.4-3.1,1.7c-0.7,0.2-1.4,0.2-2.3,0.2c-2.1,0-3.8-0.8-5.3-2.3s-2.2-3.6-2.2-6.4
		c0-2.7,0.7-4.9,2.2-6.5c1.4-1.7,3.3-2.5,5.7-2.5C142.7,373.6,143.8,373.9,144.9,374.5z M145.9,381c-0.1-1.2-0.4-2.2-0.8-2.9
		c-0.8-1.4-2-2-3.8-2c-1.3,0-2.4,0.5-3.2,1.4c-0.9,0.9-1.3,2.1-1.4,3.6H145.9z"/>
	<path fill="#FFFFFF" d="M152.1,367.7h2.7v8.3c0.6-0.8,1.4-1.4,2.2-1.8s1.8-0.6,2.8-0.6c2.1,0,3.8,0.7,5.1,2.1c1.3,1.4,2,3.5,2,6.3
		c0,2.6-0.6,4.8-1.9,6.6s-3.1,2.6-5.3,2.6c-1.3,0-2.4-0.3-3.2-0.9c-0.5-0.4-1.1-0.9-1.7-1.8v2.1h-2.6V367.7z M162.9,387
		c0.8-1.2,1.1-2.8,1.1-4.8c0-1.8-0.4-3.2-1.1-4.4s-1.9-1.7-3.3-1.7c-1.3,0-2.4,0.5-3.4,1.4c-1,0.9-1.5,2.5-1.5,4.7
		c0,1.6,0.2,2.8,0.6,3.8c0.7,1.8,2.1,2.8,4.2,2.8C161,388.8,162.1,388.2,162.9,387z"/>
	<path fill="#FFFFFF" d="M179.1,380.6c0.6-0.1,1.1-0.4,1.3-0.8c0.1-0.3,0.2-0.6,0.2-1.1c0-1-0.3-1.7-1-2.1s-1.7-0.7-2.9-0.7
		c-1.5,0-2.5,0.4-3.1,1.2c-0.3,0.4-0.6,1.1-0.7,2h-2.6c0.1-2.1,0.7-3.5,2-4.3c1.3-0.8,2.8-1.2,4.5-1.2c2,0,3.6,0.4,4.8,1.1
		c1.2,0.8,1.8,1.9,1.8,3.5v9.6c0,0.3,0.1,0.5,0.2,0.7c0.1,0.2,0.4,0.3,0.8,0.3c0.1,0,0.3,0,0.4,0s0.3,0,0.5-0.1v2.1
		c-0.4,0.1-0.8,0.2-1,0.2c-0.2,0-0.5,0-0.9,0c-1,0-1.7-0.3-2.1-1c-0.2-0.4-0.4-0.9-0.5-1.5c-0.6,0.8-1.4,1.4-2.5,2
		c-1.1,0.6-2.3,0.8-3.5,0.8c-1.6,0-2.8-0.5-3.8-1.4s-1.5-2.1-1.5-3.5c0-1.5,0.5-2.8,1.5-3.6s2.2-1.4,3.8-1.6L179.1,380.6z
		 M173.2,388.2c0.6,0.5,1.3,0.7,2.1,0.7c1,0,1.9-0.2,2.9-0.7c1.6-0.8,2.3-2,2.3-3.7v-2.3c-0.3,0.2-0.8,0.4-1.3,0.5
		c-0.5,0.1-1.1,0.3-1.6,0.3l-1.7,0.2c-1,0.1-1.8,0.3-2.3,0.6c-0.9,0.5-1.3,1.3-1.3,2.3C172.3,387.1,172.6,387.8,173.2,388.2z"/>
	<path fill="#FFFFFF" d="M188,374h2.7v2.9c0.2-0.6,0.8-1.2,1.6-2.1c0.9-0.8,1.8-1.2,3-1.2c0.1,0,0.1,0,0.3,0c0.1,0,0.3,0,0.6,0.1v3
		c-0.2,0-0.3-0.1-0.5-0.1c-0.1,0-0.3,0-0.5,0c-1.4,0-2.5,0.5-3.3,1.4c-0.8,0.9-1.1,2-1.1,3.1v9.6H188V374z"/>
</g>
<rect x="292" y="179.4" fill="none" stroke="#FFFFFF" stroke-width="4" stroke-miterlimit="10" width="720" height="715"/>
<g>
	<path fill="#FFFFFF" d="M614.3,527.1c1.6,1.5,2.5,3.3,2.6,5.2h-3c-0.3-1.5-1-2.7-2-3.5c-1-0.9-2.4-1.3-4.2-1.3
		c-2.2,0-4,0.8-5.4,2.4c-1.4,1.6-2,4-2,7.3c0,2.7,0.6,4.9,1.8,6.5c1.2,1.7,3.1,2.5,5.5,2.5c2.3,0,4-0.9,5.1-2.6
		c0.6-0.9,1.1-2.1,1.4-3.7h3c-0.3,2.4-1.2,4.4-2.7,6.1c-1.8,2-4.2,3-7.3,3c-2.6,0-4.8-0.8-6.6-2.4c-2.4-2.1-3.5-5.4-3.5-9.9
		c0-3.4,0.9-6.2,2.7-8.3c1.9-2.4,4.6-3.5,7.9-3.5C610.5,524.8,612.7,525.5,614.3,527.1z"/>
	<path fill="#FFFFFF" d="M632.9,533.3c1.5,1.4,2.2,3.5,2.2,6.3c0,2.7-0.7,4.9-2,6.7s-3.3,2.6-6.1,2.6c-2.3,0-4.1-0.8-5.4-2.3
		c-1.3-1.6-2-3.6-2-6.3c0-2.8,0.7-5,2.1-6.7c1.4-1.7,3.3-2.5,5.7-2.5C629.6,531.1,631.5,531.9,632.9,533.3z M631.2,544.4
		c0.7-1.4,1-3,1-4.7c0-1.6-0.2-2.8-0.7-3.8c-0.8-1.5-2.1-2.3-4-2.3c-1.7,0-2.9,0.7-3.7,2c-0.8,1.3-1.2,2.9-1.2,4.7
		c0,1.8,0.4,3.3,1.2,4.4c0.8,1.2,2,1.8,3.7,1.8C629.2,546.5,630.5,545.8,631.2,544.4z"/>
	<path fill="#FFFFFF" d="M638.6,531.6h2.7v2.4c0.8-1,1.6-1.7,2.5-2.1c0.9-0.4,1.9-0.6,3-0.6c2.4,0,4,0.8,4.8,2.5
		c0.5,0.9,0.7,2.2,0.7,3.9v10.7h-2.9v-10.5c0-1-0.2-1.8-0.5-2.5c-0.5-1-1.4-1.6-2.7-1.6c-0.7,0-1.2,0.1-1.6,0.2
		c-0.8,0.2-1.4,0.7-2,1.4c-0.5,0.6-0.8,1.1-0.9,1.7c-0.1,0.6-0.2,1.4-0.2,2.5v8.8h-2.8V531.6z"/>
	<path fill="#FFFFFF" d="M657,526.9h2.8v4.7h2.7v2.3h-2.7v10.9c0,0.6,0.2,1,0.6,1.2c0.2,0.1,0.6,0.2,1.1,0.2c0.1,0,0.3,0,0.4,0
		s0.3,0,0.5-0.1v2.2c-0.3,0.1-0.7,0.2-1,0.2c-0.3,0-0.7,0.1-1.1,0.1c-1.3,0-2.2-0.3-2.7-1s-0.7-1.5-0.7-2.6v-11.1h-2.3v-2.3h2.3
		V526.9z"/>
	<path fill="#FFFFFF" d="M675.6,532.1c1.1,0.6,2,1.3,2.5,2.2c0.6,0.8,0.9,1.8,1.1,3c0.2,0.8,0.2,2,0.2,3.7h-12.2
		c0.1,1.7,0.4,3.1,1.2,4.1c0.7,1,1.9,1.5,3.5,1.5c1.5,0,2.6-0.5,3.5-1.5c0.5-0.6,0.8-1.2,1-2h2.8c-0.1,0.6-0.3,1.3-0.7,2.1
		c-0.4,0.8-0.9,1.4-1.4,1.9c-0.8,0.8-1.9,1.4-3.1,1.7c-0.7,0.2-1.4,0.2-2.3,0.2c-2.1,0-3.8-0.8-5.3-2.3s-2.2-3.6-2.2-6.4
		c0-2.7,0.7-4.9,2.2-6.5c1.4-1.7,3.3-2.5,5.7-2.5C673.4,531.2,674.5,531.5,675.6,532.1z M676.6,538.6c-0.1-1.2-0.4-2.2-0.8-2.9
		c-0.8-1.4-2-2-3.8-2c-1.3,0-2.4,0.5-3.2,1.4c-0.9,0.9-1.3,2.1-1.4,3.6H676.6z"/>
	<path fill="#FFFFFF" d="M683.1,531.6h2.7v2.4c0.8-1,1.6-1.7,2.5-2.1c0.9-0.4,1.9-0.6,3-0.6c2.4,0,4,0.8,4.8,2.5
		c0.5,0.9,0.7,2.2,0.7,3.9v10.7h-2.9v-10.5c0-1-0.2-1.8-0.5-2.5c-0.5-1-1.4-1.6-2.7-1.6c-0.7,0-1.2,0.1-1.6,0.2
		c-0.8,0.2-1.4,0.7-2,1.4c-0.5,0.6-0.8,1.1-0.9,1.7c-0.1,0.6-0.2,1.4-0.2,2.5v8.8h-2.8V531.6z"/>
	<path fill="#FFFFFF" d="M701.4,526.9h2.8v4.7h2.7v2.3h-2.7v10.9c0,0.6,0.2,1,0.6,1.2c0.2,0.1,0.6,0.2,1.1,0.2c0.1,0,0.3,0,0.4,0
		s0.3,0,0.5-0.1v2.2c-0.3,0.1-0.7,0.2-1,0.2c-0.3,0-0.7,0.1-1.1,0.1c-1.3,0-2.2-0.3-2.7-1s-0.7-1.5-0.7-2.6v-11.1h-2.3v-2.3h2.3
		V526.9z"/>
</g>
<g>
	<path fill="#FFFFFF" d="M467.3,951.9h15.9v2.8h-12.8v7h11.3v2.7h-11.3v10.4h-3.1V951.9z"/>
	<path fill="#FFFFFF" d="M498.3,959.7c1.5,1.4,2.2,3.5,2.2,6.3c0,2.7-0.7,4.9-2,6.7s-3.3,2.6-6.1,2.6c-2.3,0-4.1-0.8-5.4-2.3
		s-2-3.6-2-6.3c0-2.8,0.7-5,2.1-6.7c1.4-1.7,3.3-2.5,5.7-2.5C495,957.6,496.8,958.3,498.3,959.7z M496.6,970.9c0.7-1.4,1-3,1-4.7
		c0-1.6-0.2-2.8-0.7-3.8c-0.8-1.5-2.1-2.3-4-2.3c-1.7,0-2.9,0.7-3.7,2c-0.8,1.3-1.2,2.9-1.2,4.7c0,1.8,0.4,3.3,1.2,4.4
		c0.8,1.2,2,1.8,3.7,1.8C494.6,973,495.9,972.3,496.6,970.9z"/>
	<path fill="#FFFFFF" d="M516.1,959.7c1.5,1.4,2.2,3.5,2.2,6.3c0,2.7-0.7,4.9-2,6.7s-3.3,2.6-6.1,2.6c-2.3,0-4.1-0.8-5.4-2.3
		s-2-3.6-2-6.3c0-2.8,0.7-5,2.1-6.7c1.4-1.7,3.3-2.5,5.7-2.5C512.8,957.6,514.6,958.3,516.1,959.7z M514.4,970.9c0.7-1.4,1-3,1-4.7
		c0-1.6-0.2-2.8-0.7-3.8c-0.8-1.5-2.1-2.3-4-2.3c-1.7,0-2.9,0.7-3.7,2c-0.8,1.3-1.2,2.9-1.2,4.7c0,1.8,0.4,3.3,1.2,4.4
		c0.8,1.2,2,1.8,3.7,1.8C512.4,973,513.7,972.3,514.4,970.9z"/>
	<path fill="#FFFFFF" d="M522.3,953.4h2.8v4.7h2.7v2.3h-2.7v10.9c0,0.6,0.2,1,0.6,1.2c0.2,0.1,0.6,0.2,1.1,0.2c0.1,0,0.3,0,0.4,0
		s0.3,0,0.5-0.1v2.2c-0.3,0.1-0.7,0.2-1,0.2c-0.3,0-0.7,0.1-1.1,0.1c-1.3,0-2.2-0.3-2.7-1s-0.7-1.5-0.7-2.6v-11.1h-2.3v-2.3h2.3
		V953.4z"/>
	<path fill="#FFFFFF" d="M541,958.5c1.1,0.6,2,1.3,2.5,2.2c0.6,0.8,0.9,1.8,1.1,3c0.2,0.8,0.2,2,0.2,3.7h-12.2
		c0.1,1.7,0.4,3.1,1.2,4.1c0.7,1,1.9,1.5,3.5,1.5c1.5,0,2.6-0.5,3.5-1.5c0.5-0.6,0.8-1.2,1-2h2.8c-0.1,0.6-0.3,1.3-0.7,2.1
		c-0.4,0.8-0.9,1.4-1.4,1.9c-0.8,0.8-1.9,1.4-3.1,1.7c-0.7,0.2-1.4,0.2-2.3,0.2c-2.1,0-3.8-0.8-5.3-2.3s-2.2-3.6-2.2-6.4
		c0-2.7,0.7-4.9,2.2-6.5s3.3-2.5,5.7-2.5C538.8,957.7,539.9,958,541,958.5z M542,965.1c-0.1-1.2-0.4-2.2-0.8-2.9c-0.8-1.4-2-2-3.8-2
		c-1.3,0-2.4,0.5-3.2,1.4s-1.3,2.1-1.4,3.6H542z"/>
	<path fill="#FFFFFF" d="M548.5,958.1h2.7v2.9c0.2-0.6,0.8-1.2,1.6-2.1c0.9-0.8,1.8-1.2,3-1.2c0.1,0,0.1,0,0.3,0s0.3,0,0.6,0.1v3
		c-0.2,0-0.3-0.1-0.5-0.1s-0.3,0-0.5,0c-1.4,0-2.5,0.5-3.3,1.4c-0.8,0.9-1.1,2-1.1,3.1v9.6h-2.8V958.1z"/>
</g>
</svg>
